<svg width="55" height="56" viewBox="0 0 55 56" fill="none" xmlns="http://www.w3.org/2000/svg">
<path d="M0 1.70564L2.01961 1.64973L17.2831 52.9863L16.0159 55.5868L0 1.70564ZM20.5358 46.3116L19.0717 49.2664L4.54412 1.57983L6.80021 1.51737L20.5358 46.3116ZM23.5724 39.9988L21.9973 43.3126L9.59313 1.44004L11.6127 1.38412L23.5724 39.9988ZM26.5563 33.8757L24.9496 37.1727L14.1372 1.31423L16.6618 1.24433L26.5563 33.8757Z" fill="white"/>
<path d="M32.1007 44.7656L35.4913 55.9664H37.8904L33.2816 40.6368H35.3335L40.1633 55.9664H42.5624L37.6694 40.5707C38.8269 40.4605 39.5004 40.3835 39.6898 40.3394L44.8352 55.9664H47.2344L41.9626 39.7778C42.4046 39.6456 43.0464 39.4033 43.8882 39.0509L49.5072 55.9664H51.9064L46.0348 37.9276C48.7917 36.2537 50.9699 33.93 52.5693 30.9566C54.1897 27.9832 55 24.5362 55 20.6157C55 17.2238 54.1371 14.0411 52.4114 11.0677C50.7068 8.07228 48.4024 5.69354 45.4982 3.93151C42.594 2.14746 39.4898 1.25543 36.1858 1.25543H19.0348L19.7491 3.63417H36.1858C39.111 3.63417 41.8469 4.41607 44.3933 5.97987C46.9397 7.54367 48.9601 9.63608 50.4542 12.2571C51.9695 14.8561 52.7271 17.6423 52.7271 20.6157C52.7271 23.8975 51.9695 26.9039 50.4542 29.6351C48.939 32.3442 46.9187 34.4586 44.3933 35.9784C41.8679 37.4981 39.1321 38.258 36.1858 38.258H30.1465L32.1007 44.7656Z" fill="white"/>
<path d="M29.4322 35.8793H36.1858C40.0791 35.8793 43.4252 34.4256 46.2242 31.5183C49.0442 28.5889 50.4542 24.9547 50.4542 20.6157C50.4542 18.0828 49.8019 15.693 48.4971 13.4465C47.1923 11.1779 45.435 9.37177 43.2253 8.02823C41.0366 6.68468 38.6901 6.01291 36.1858 6.01291H20.4634L21.1778 8.39164H36.1858C39.3636 8.39164 42.152 9.62506 44.5511 12.0919C46.9713 14.5367 48.1814 17.378 48.1814 20.6157C48.1814 24.382 47.0029 27.4766 44.6458 29.8994C42.2888 32.3002 39.4688 33.5005 36.1858 33.5005H28.7179L29.4322 35.8793Z" fill="white"/>
<path d="M28.0035 31.1218H36.1858C38.8795 31.1218 41.1734 30.1637 43.0675 28.2475C44.9615 26.3313 45.9085 23.7874 45.9085 20.6157C45.9085 18.0387 44.93 15.7591 42.9728 13.7768C41.0156 11.7725 38.7533 10.7704 36.1858 10.7704H21.8921L22.6064 13.1491H36.1858C38.1219 13.1491 39.8476 13.92 41.3628 15.4618C42.8781 16.9815 43.6357 18.6995 43.6357 20.6157C43.6357 23.2147 42.9096 25.219 41.4575 26.6286C40.0265 28.0383 38.2692 28.7431 36.1858 28.7431H27.2892L28.0035 31.1218Z" fill="white"/>
<path d="M26.5749 26.3643H36.1858C39.6371 26.3643 41.3628 24.4481 41.3628 20.6157C41.3628 19.2281 40.8472 18.0387 39.816 17.0476C38.8059 16.0344 37.5958 15.5279 36.1858 15.5279H23.3207L24.0351 17.9066H36.1858C37.0065 17.9066 37.6905 18.1709 38.2377 18.6995C38.8059 19.2061 39.09 19.8448 39.09 20.6157C39.09 21.8712 38.8269 22.7522 38.3008 23.2588C37.7957 23.7433 37.0907 23.9856 36.1858 23.9856H25.8606L26.5749 26.3643Z" fill="white"/>
</svg>
