<svg xmlns="http://www.w3.org/2000/svg" width="512" height="513" fill="none" viewBox="0 0 512 513"><path fill="#fff" d="M0 7.58195L18.6555 7.06546L159.741 485.038L148.039 509.246L0 7.58195ZM189.775 422.904L176.256 450.409L41.9748 6.41982L62.8148 5.84282L189.775 422.904ZM217.813 364.137L203.269 394.986L88.6136 5.12853L107.269 4.61201L217.813 364.137ZM245.365 307.138L230.529 337.83L130.588 3.96636L153.908 3.32072L245.365 307.138Z"/><path fill="#fff" d="M300.477 408.474L331.796 512.754H353.957L311.385 370.034H330.338L374.952 512.754H397.113L351.916 369.418C362.608 368.393 368.828 367.675 370.578 367.265L418.108 512.754H440.269L391.573 362.036C395.655 360.806 401.584 358.55 409.36 355.269L461.263 512.754H483.424L429.188 344.812C454.654 329.227 474.774 307.594 489.548 279.911C504.516 252.228 512 220.137 512 183.636C512 152.058 504.03 122.427 488.09 94.744C472.344 66.8562 451.058 44.71 424.231 28.3054C397.405 11.6957 368.731 3.3909 338.211 3.3909H179.785L186.384 25.5371H338.211C365.232 25.5371 390.503 32.8166 414.025 47.3757C437.547 61.9348 456.209 81.4153 470.011 105.817C484.007 130.014 491.006 155.954 491.006 183.636C491.006 214.19 484.007 242.18 470.011 267.607C456.015 292.829 437.353 312.515 414.025 326.664C390.698 340.813 365.427 347.887 338.211 347.887H282.426L300.477 408.474Z"/><path fill="#fff" d="M275.827 325.741H338.211C374.174 325.741 405.083 312.207 430.938 285.14C456.987 257.867 470.011 224.033 470.011 183.636C470.011 160.055 463.985 137.806 451.932 116.89C439.88 95.7693 423.648 78.9546 403.236 66.4461C383.019 53.9376 361.344 47.6833 338.211 47.6833H192.982L199.58 69.8295H338.211C367.565 69.8295 393.322 81.3127 415.483 104.279C437.839 127.041 449.016 153.493 449.016 183.636C449.016 218.701 438.13 247.512 416.358 270.068C394.586 292.419 368.537 303.595 338.211 303.595H269.229L275.827 325.741Z"/><path fill="#fff" d="M262.631 281.449H338.211C363.094 281.449 384.283 272.529 401.778 254.689C419.274 236.849 428.022 213.165 428.022 183.636C428.022 159.645 418.982 138.421 400.904 119.966C382.825 101.306 361.927 91.9757 338.211 91.9757H206.179L212.777 114.122H338.211C356.096 114.122 372.036 121.299 386.032 135.653C400.029 149.802 407.027 165.796 407.027 183.636C407.027 207.833 400.32 226.493 386.907 239.617C373.688 252.741 357.456 259.303 338.211 259.303H256.033L262.631 281.449Z"/><path fill="#fff" d="M249.434 237.156H338.211C370.092 237.156 386.032 219.316 386.032 183.636C386.032 170.718 381.27 159.645 371.744 150.417C362.413 140.984 351.236 136.268 338.211 136.268H219.375L225.974 158.414H338.211C345.793 158.414 352.11 160.875 357.165 165.796C362.413 170.513 365.038 176.459 365.038 183.636C365.038 195.325 362.608 203.527 357.748 208.243C353.082 212.755 346.57 215.01 338.211 215.01H242.836L249.434 237.156Z"/></svg>