<svg width="55" height="56" viewBox="0 0 55 56" fill="none" xmlns="http://www.w3.org/2000/svg">
<path d="M0 1.70564L2.00401 1.65016L17.1597 52.9949L15.9027 55.5954L0 1.70564ZM20.3859 46.3203L18.9337 49.275L4.50902 1.5808L6.74769 1.51882L20.3859 46.3203ZM23.3979 40.0075L21.8355 43.3213L9.51904 1.44209L11.523 1.38661L23.3979 40.0075ZM26.3575 33.8845L24.7639 37.1815L14.0281 1.31725L16.5331 1.24789L26.3575 33.8845Z" fill="white"/>
<path d="M32.2778 44.7702L35.6422 55.9721H38.0227L33.4495 40.6409H35.4855L40.278 55.9721H42.6586L37.8035 40.5748C38.952 40.4647 39.6202 40.3876 39.8082 40.3435L44.9139 55.9721H47.2945L42.0635 39.7818C42.502 39.6496 43.1389 39.4073 43.9742 39.0549L49.5498 55.9721H51.9303L46.1042 37.9315C48.8398 36.2574 51.0011 33.9335 52.5881 30.9597C54.1961 27.986 55 24.5387 55 20.6177C55 17.2255 54.1439 14.0425 52.4315 11.0688C50.74 8.07299 48.4534 5.694 45.5717 3.93179C42.6899 2.14755 39.6098 1.25543 36.3313 1.25543H19.3129L20.0217 3.63442H36.3313C39.2339 3.63442 41.9486 4.4164 44.4754 5.98036C47.0021 7.54433 49.0068 9.63695 50.4895 12.2582C51.993 14.8575 52.7447 17.644 52.7447 20.6177C52.7447 23.8999 51.993 26.9066 50.4895 29.6381C48.9859 32.3475 46.9812 34.4621 44.4754 35.982C41.9695 37.5019 39.2548 38.2619 36.3313 38.2619H30.3387L32.2778 44.7702Z" fill="white"/>
<path d="M29.6299 35.8829H36.3313C40.1945 35.8829 43.5148 34.4291 46.2921 31.5214C49.0903 28.5917 50.4895 24.9572 50.4895 20.6177C50.4895 18.0846 49.8421 15.6946 48.5474 13.4477C47.2527 11.1789 45.509 9.37262 43.3164 8.02894C41.1446 6.68525 38.8163 6.01341 36.3313 6.01341H20.7305L21.4393 8.39239H36.3313C39.4845 8.39239 42.2514 9.62594 44.632 12.093C47.0334 14.5381 48.2342 17.3797 48.2342 20.6177C48.2342 24.3845 47.0648 27.4794 44.726 29.9024C42.3871 32.3034 39.5889 33.5039 36.3313 33.5039H28.9211L29.6299 35.8829Z" fill="white"/>
<path d="M28.2123 31.1249H36.3313C39.0042 31.1249 41.2804 30.1667 43.1598 28.2503C45.0392 26.3339 45.9789 23.7897 45.9789 20.6177C45.9789 18.0405 45.0079 15.7606 43.0658 13.7782C41.1238 11.7736 38.8789 10.7714 36.3313 10.7714H22.1481L22.8569 13.1504H36.3313C38.2524 13.1504 39.9648 13.9213 41.4683 15.4633C42.9718 16.9832 43.7236 18.7013 43.7236 20.6177C43.7236 23.217 43.0032 25.2215 41.5623 26.6313C40.1423 28.0411 38.3986 28.7459 36.3313 28.7459H27.5035L28.2123 31.1249Z" fill="white"/>
<path d="M26.7947 26.367H36.3313C39.756 26.367 41.4683 24.4506 41.4683 20.6177C41.4683 19.23 40.9567 18.0405 39.9335 17.0493C38.9311 16.036 37.7304 15.5294 36.3313 15.5294H23.5657L24.2745 17.9083H36.3313C37.1457 17.9083 37.8244 18.1727 38.3673 18.7013C38.9311 19.208 39.213 19.8468 39.213 20.6177C39.213 21.8733 38.952 22.7544 38.4299 23.2611C37.9288 23.7457 37.2292 23.988 36.3313 23.988H26.0859L26.7947 26.367Z" fill="white"/>
</svg>
